<?xml version="1.0" standalone="no"?>
<!DOCTYPE svg PUBLIC "-//W3C//DTD SVG 20010904//EN"
 "http://www.w3.org/TR/2001/REC-SVG-20010904/DTD/svg10.dtd">
<svg version="1.0" xmlns="http://www.w3.org/2000/svg"
 width="512.000000pt" height="512.000000pt" viewBox="0 0 512.000000 512.000000"
 preserveAspectRatio="xMidYMid meet">

<g transform="translate(0.000000,512.000000) scale(0.100000,-0.100000)"
fill="#000000" stroke="none">
<path d="M3006 5044 c-4 -9 0 -22 7 -28 7 -6 19 -20 27 -31 14 -19 14 -19 -6
-2 -17 14 -21 15 -21 2 0 -8 4 -15 9 -15 4 0 8 -9 8 -21 0 -27 21 -47 70 -64
164 -58 367 -192 515 -340 217 -217 357 -480 415 -780 25 -131 60 -164 124
-114 33 26 34 59 2 199 -108 477 -423 878 -861 1098 -78 39 -261 112 -280 112
-1 0 -6 -7 -9 -16z"/>
<path d="M3120 4614 c0 -9 9 -18 20 -21 17 -5 18 -7 5 -20 -17 -16 -11 -35 8
-27 8 3 13 -5 15 -20 1 -16 -3 -24 -11 -22 -6 1 -9 1 -4 -1 4 -3 5 -9 2 -14
-4 -5 1 -6 10 -3 9 4 15 3 13 -2 -6 -24 17 -55 65 -86 72 -48 187 -164 248
-251 64 -91 103 -168 145 -282 38 -107 65 -135 112 -116 50 21 55 49 26 144
-55 174 -173 365 -311 499 -119 116 -343 261 -343 222z"/>
<path d="M3160 4461 c0 -6 4 -13 10 -16 6 -3 7 1 4 9 -7 18 -14 21 -14 7z"/>
<path d="M4483 4112 c-133 -52 -163 -72 -163 -112 0 -31 37 -70 67 -70 33 0
287 99 301 117 18 25 15 77 -6 96 -28 26 -66 20 -199 -31z"/>
<path d="M4445 3575 c-30 -29 -32 -68 -5 -95 18 -18 33 -20 180 -20 147 0 162
2 180 20 29 29 26 74 -6 99 -24 19 -40 21 -176 21 -145 0 -150 -1 -173 -25z"/>
<path d="M4072 3402 c-13 -13 -22 -48 -31 -116 -30 -231 -117 -455 -256 -656
-70 -103 -69 -100 -45 -95 11 2 18 0 15 -6 -4 -5 -18 -10 -33 -10 -20 -1 -22
-3 -8 -6 11 -3 27 -12 35 -21 15 -14 14 -15 -1 -9 -10 3 -18 2 -18 -3 0 -6 5
-10 11 -10 5 0 7 -6 3 -12 -6 -10 -5 -10 8 0 13 10 15 9 10 -13 -2 -14 -9 -22
-15 -18 -6 3 -7 1 -3 -6 6 -9 11 -9 22 0 9 8 14 8 14 1 0 -6 -8 -16 -17 -21
-11 -6 -13 -11 -5 -11 35 -1 186 212 266 375 91 184 146 368 162 542 6 63 4
73 -15 92 -26 26 -74 28 -99 3z"/>
<path d="M4362 3120 c-28 -12 -46 -51 -38 -84 8 -31 38 -47 199 -106 l118 -43
27 20 c34 25 42 81 15 105 -16 14 -277 119 -292 117 -3 0 -16 -4 -29 -9z"/>
</g>
</svg>
