<?xml version="1.0" standalone="no"?>
<!DOCTYPE svg PUBLIC "-//W3C//DTD SVG 20010904//EN"
 "http://www.w3.org/TR/2001/REC-SVG-20010904/DTD/svg10.dtd">
<svg version="1.0" xmlns="http://www.w3.org/2000/svg"
 width="512.000000pt" height="512.000000pt" viewBox="0 0 512.000000 512.000000"
 preserveAspectRatio="xMidYMid meet">

<g transform="translate(0.000000,512.000000) scale(0.100000,-0.100000)"
fill="#000000" stroke="none">
<path d="M3045 4889 c4 -5 8 -22 10 -36 1 -15 9 -31 17 -37 16 -12 13 -40 -3
-31 -5 4 -5 -3 0 -17 5 -13 16 -22 25 -22 9 1 14 -2 11 -6 -3 -5 1 -11 7 -14
7 -4 3 -4 -10 -2 -18 3 -21 1 -13 -8 6 -7 8 -16 4 -20 -4 -4 1 -4 12 0 18 7
18 6 6 -9 -12 -15 -11 -17 5 -17 18 -1 18 -1 2 -11 -31 -18 0 -46 122 -111 63
-33 439 -232 835 -440 396 -209 735 -390 752 -402 56 -36 73 -115 36 -164 -25
-33 -30 -36 -653 -366 -636 -336 -618 -326 -600 -326 21 0 52 -38 43 -53 -13
-21 -13 -45 1 -56 9 -8 13 -7 13 4 0 8 -5 11 -10 8 -6 -4 -7 -1 -3 6 6 9 12 8
26 -6 10 -11 13 -21 7 -25 -14 -9 -16 -50 -3 -64 13 -14 39 -6 29 9 -3 6 -1 7
5 3 6 -4 118 49 249 118 131 68 254 132 275 142 l36 17 281 -147 c275 -144
314 -171 327 -222 8 -31 -12 -87 -39 -111 -12 -11 -229 -130 -482 -263 -253
-134 -463 -247 -466 -252 -13 -20 1 -62 28 -84 22 -18 24 -23 11 -24 -10 0
-18 -4 -18 -10 0 -5 8 -7 18 -3 14 5 13 3 -3 -10 -17 -14 -18 -18 -5 -27 8 -5
11 -10 6 -10 -5 0 -2 -8 7 -18 10 -10 14 -22 10 -27 -5 -4 66 31 157 78 l165
86 274 -144 c151 -79 287 -156 303 -170 15 -14 30 -41 33 -59 8 -41 -15 -99
-47 -120 -12 -8 -167 -91 -343 -185 -176 -93 -319 -174 -318 -180 2 -6 -3 -8
-11 -5 -16 6 -29 -33 -14 -43 7 -3 8 -1 4 5 -4 7 -3 12 3 12 14 0 25 -21 15
-29 -14 -9 -11 -68 3 -68 7 0 9 5 6 10 -3 6 -2 8 3 4 5 -3 9 -22 8 -41 -4 -71
14 -65 397 135 388 203 437 237 486 337 24 49 27 69 27 147 0 80 -3 97 -29
148 -43 86 -100 130 -311 241 -104 55 -202 107 -217 117 l-28 17 216 113 c126
66 237 131 264 156 138 123 152 338 30 477 -42 48 -60 60 -307 191 l-204 107
40 23 c21 12 119 64 218 115 200 105 258 151 301 239 25 49 28 67 28 151 0 80
-4 103 -25 145 -53 108 -44 103 -1010 609 -492 258 -923 484 -958 503 -67 36
-77 39 -67 22z m31 -46 c-10 -10 -19 5 -10 18 6 11 8 11 12 0 2 -7 1 -15 -2
-18z m58 -209 c5 -14 4 -15 -9 -4 -17 14 -19 20 -6 20 5 0 12 -7 15 -16z m530
-1790 c5 -14 4 -15 -9 -4 -17 14 -19 20 -6 20 5 0 12 -7 15 -16z m34 -169 c-3
-3 -9 2 -12 12 -6 14 -5 15 5 6 7 -7 10 -15 7 -18z m224 -770 c-8 -16 -9 -16
-15 -1 -4 10 -3 15 3 11 6 -3 10 -1 10 6 0 7 3 10 6 6 3 -3 2 -13 -4 -22z
m285 -952 c0 -9 -4 -10 -14 -2 -7 6 -13 12 -13 14 0 1 6 2 13 2 8 0 14 -6 14
-14z"/>
<path d="M3000 4882 c0 -6 5 -14 10 -17 6 -4 7 -11 4 -17 -4 -7 -2 -8 5 -4 9
6 9 12 -1 24 -7 10 -14 19 -15 21 -2 2 -3 -1 -3 -7z"/>
<path d="M4133 965 c0 -8 4 -12 9 -9 5 3 6 10 3 15 -9 13 -12 11 -12 -6z"/>
</g>
</svg>
